<svg width="40" height="40" viewBox="0 0 40 40" fill="none" xmlns="http://www.w3.org/2000/svg">
<g clip-path="url(#clip0_1_671)">
<path d="M28.3333 4.99999H34.9999C35.4419 4.99999 35.8659 5.17558 36.1784 5.48815C36.491 5.80071 36.6666 6.22463 36.6666 6.66666V33.3333C36.6666 33.7753 36.491 34.1993 36.1784 34.5118C35.8659 34.8244 35.4419 35 34.9999 35H4.99992C4.55789 35 4.13397 34.8244 3.82141 34.5118C3.50885 34.1993 3.33325 33.7753 3.33325 33.3333V6.66666C3.33325 6.22463 3.50885 5.80071 3.82141 5.48815C4.13397 5.17558 4.55789 4.99999 4.99992 4.99999H11.6666V1.66666H14.9999V4.99999H24.9999V1.66666H28.3333V4.99999ZM33.3333 15V8.33332H28.3333V11.6667H24.9999V8.33332H14.9999V11.6667H11.6666V8.33332H6.66659V15H33.3333ZM33.3333 18.3333H6.66659V31.6667H33.3333V18.3333ZM9.99992 21.6667H18.3333V28.3333H9.99992V21.6667Z" fill="#2668E2"/>
</g>
<defs>
<clipPath id="clip0_1_671">
<rect width="40" height="40" fill="white"/>
</clipPath>
</defs>
</svg>
