<svg width="40" height="40" viewBox="0 0 40 40" fill="none" xmlns="http://www.w3.org/2000/svg">
<g clip-path="url(#clip0_1_679)">
<path d="M11.6666 8.33332V3.33332C11.6666 2.8913 11.8422 2.46737 12.1547 2.15481C12.4673 1.84225 12.8912 1.66666 13.3333 1.66666H26.6666C27.1086 1.66666 27.5325 1.84225 27.8451 2.15481C28.1577 2.46737 28.3333 2.8913 28.3333 3.33332V8.33332H34.9999C35.4419 8.33332 35.8659 8.50892 36.1784 8.82148C36.491 9.13404 36.6666 9.55796 36.6666 9.99999V33.3333C36.6666 33.7753 36.491 34.1993 36.1784 34.5118C35.8659 34.8244 35.4419 35 34.9999 35H4.99992C4.55789 35 4.13397 34.8244 3.82141 34.5118C3.50885 34.1993 3.33325 33.7753 3.33325 33.3333V9.99999C3.33325 9.55796 3.50885 9.13404 3.82141 8.82148C4.13397 8.50892 4.55789 8.33332 4.99992 8.33332H11.6666ZM26.6666 25H21.6666V26.6667H18.3333V25H13.3333V31.6667H26.6666V25ZM13.3333 11.6667V21.6667H18.3333V20H21.6666V21.6667H26.6666V11.6667H13.3333ZM9.99992 21.6667V11.6667H6.66659V21.6667H9.99992ZM29.9999 21.6667H33.3333V11.6667H29.9999V21.6667ZM9.99992 25H6.66659V31.6667H9.99992V25ZM29.9999 25V31.6667H33.3333V25H29.9999ZM14.9999 4.99999V8.33332H24.9999V4.99999H14.9999Z" fill="#2668E2"/>
</g>
<defs>
<clipPath id="clip0_1_679">
<rect width="40" height="40" fill="white"/>
</clipPath>
</defs>
</svg>
