<svg width="32" height="32" viewBox="0 0 32 32" fill="none" xmlns="http://www.w3.org/2000/svg">
<path fill-rule="evenodd" clip-rule="evenodd" d="M7.52468 2.66667C4.84533 2.66667 2.66675 4.84522 2.66675 7.5246V10.3416C2.66675 11.1305 3.30636 11.7701 4.09532 11.7701C4.88429 11.7701 5.52389 11.1305 5.52389 10.3416V7.5246C5.52389 6.42206 6.42216 5.52381 7.52468 5.52381H10.3416C11.1306 5.52381 11.7702 4.88422 11.7702 4.09524C11.7702 3.30628 11.1306 2.66667 10.3416 2.66667H7.52468ZM21.6585 2.66667C20.8695 2.66667 20.2299 3.3063 20.2299 4.09524C20.2299 4.8842 20.8695 5.52381 21.6585 5.52381H24.4755C25.578 5.52381 26.4763 6.42207 26.4763 7.5246V10.3416C26.4763 11.1305 27.1159 11.7701 27.9049 11.7701C28.6939 11.7701 29.3334 11.1305 29.3334 10.3416V7.5246C29.3334 4.84522 27.1549 2.66667 24.4755 2.66667H21.6585ZM4.09532 20.2299C3.30638 20.2299 2.66675 20.8694 2.66675 21.6584V24.4754C2.66675 27.1548 4.84533 29.3333 7.52468 29.3333H10.3416C11.1306 29.3333 11.7702 28.6938 11.7702 27.9048C11.7702 27.1158 11.1306 26.4762 10.3416 26.4762H7.52468C6.42217 26.4762 5.52389 25.5779 5.52389 24.4754V21.6584C5.52389 20.8694 4.88427 20.2299 4.09532 20.2299ZM27.9049 20.2299C27.1159 20.2299 26.4763 20.8694 26.4763 21.6584V24.4754C26.4763 25.5779 25.578 26.4762 24.4755 26.4762H21.6585C20.8695 26.4762 20.2299 27.1158 20.2299 27.9048C20.2299 28.6938 20.8695 29.3333 21.6585 29.3333H24.4755C27.1549 29.3333 29.3334 27.1548 29.3334 24.4754V21.6584C29.3334 20.8694 28.6939 20.2299 27.9049 20.2299Z" fill="white"/>
<path d="M10.6374 10.7336C10.1842 10.7336 9.81689 11.1009 9.81689 11.554V13.5345C9.81689 13.9877 10.1842 14.3549 10.6374 14.3549C11.0905 14.3549 11.4578 13.9877 11.4578 13.5345V11.554C11.4578 11.1009 11.0905 10.7336 10.6374 10.7336Z" fill="white"/>
<path d="M15.8354 11.5926C15.8354 11.1182 16.2201 10.7336 16.6944 10.7336C17.1689 10.7336 17.5535 11.1182 17.5535 11.5926V16.5309C17.5535 17.6004 16.6837 18.4702 15.6142 18.4702H15.0483C14.5739 18.4702 14.1893 18.0856 14.1893 17.6112C14.1893 17.1367 14.5739 16.752 15.0483 16.752H15.6142C15.736 16.752 15.8354 16.6527 15.8354 16.5309V11.5926Z" fill="white"/>
<path d="M21.5171 10.7336C21.0639 10.7336 20.6965 11.1009 20.6965 11.554V13.5345C20.6965 13.9877 21.0639 14.3549 21.5171 14.3549C21.9701 14.3549 22.3375 13.9877 22.3375 13.5345V11.554C22.3375 11.1009 21.9701 10.7336 21.5171 10.7336Z" fill="white"/>
<path d="M19.5609 19.9894C19.9095 19.6675 20.453 19.6891 20.7748 20.0375C21.0968 20.3861 21.0752 20.9296 20.7267 21.2515C19.4363 22.4433 17.7576 23.0998 16.0001 23.0998C14.2426 23.0998 12.5638 22.4433 11.2734 21.2515C10.9249 20.9296 10.9034 20.3861 11.2253 20.0375C11.5473 19.6891 12.0907 19.6675 12.4392 19.9894C13.4113 20.8873 14.6757 21.3818 16.0001 21.3818C17.3245 21.3818 18.5889 20.8873 19.5609 19.9894Z" fill="white"/>
<path d="M10.6374 10.7336C10.1842 10.7336 9.81689 11.1009 9.81689 11.554V13.5345C9.81689 13.9877 10.1842 14.3549 10.6374 14.3549C11.0905 14.3549 11.4578 13.9877 11.4578 13.5345V11.554C11.4578 11.1009 11.0905 10.7336 10.6374 10.7336Z" stroke="white" stroke-width="0.4"/>
<path d="M15.8354 11.5926C15.8354 11.1182 16.2201 10.7336 16.6944 10.7336C17.1689 10.7336 17.5535 11.1182 17.5535 11.5926V16.5309C17.5535 17.6004 16.6837 18.4702 15.6142 18.4702H15.0483C14.5739 18.4702 14.1893 18.0856 14.1893 17.6112C14.1893 17.1367 14.5739 16.752 15.0483 16.752H15.6142C15.736 16.752 15.8354 16.6527 15.8354 16.5309V11.5926Z" stroke="white" stroke-width="0.4"/>
<path d="M21.5171 10.7336C21.0639 10.7336 20.6965 11.1009 20.6965 11.554V13.5345C20.6965 13.9877 21.0639 14.3549 21.5171 14.3549C21.9701 14.3549 22.3375 13.9877 22.3375 13.5345V11.554C22.3375 11.1009 21.9701 10.7336 21.5171 10.7336Z" stroke="white" stroke-width="0.4"/>
<path d="M19.5609 19.9894C19.9095 19.6675 20.453 19.6891 20.7748 20.0375C21.0968 20.3861 21.0752 20.9296 20.7267 21.2515C19.4363 22.4433 17.7576 23.0998 16.0001 23.0998C14.2426 23.0998 12.5638 22.4433 11.2734 21.2515C10.9249 20.9296 10.9034 20.3861 11.2253 20.0375C11.5473 19.6891 12.0907 19.6675 12.4392 19.9894C13.4113 20.8873 14.6757 21.3818 16.0001 21.3818C17.3245 21.3818 18.5889 20.8873 19.5609 19.9894Z" stroke="white" stroke-width="0.4"/>
</svg>
