<svg width="24" height="24" viewBox="0 0 24 24" fill="none" xmlns="http://www.w3.org/2000/svg">
<path d="M20.4177 3.71619C20.684 3.97823 20.7082 4.38828 20.4903 4.67724L20.4177 4.76002L4.64373 20.2838C4.35084 20.5721 3.87596 20.5721 3.58307 20.2838C3.3168 20.0218 3.2926 19.6117 3.51045 19.3228L3.58307 19.24L5.55512 17.3005C4.13635 16.0261 2.94657 14.3225 2.06081 12.2918C1.97951 12.1054 1.97974 11.8943 2.06144 11.7081C3.08697 9.37061 4.51054 7.46402 6.21856 6.14201C7.94745 4.79542 9.94315 4.07543 12 4.07543C13.8552 4.07543 15.656 4.66276 17.2687 5.77046L19.3571 3.71619C19.65 3.42794 20.1248 3.42794 20.4177 3.71619ZM20.0472 8.46021C20.773 9.40914 21.4073 10.4985 21.9384 11.7072C22.0205 11.894 22.0205 12.1059 21.9386 12.2927C19.8613 17.0289 16.1345 19.9245 12 19.9245C11.0588 19.9245 10.1275 19.7747 9.23057 19.4801C8.83766 19.351 8.62544 18.9329 8.75657 18.5463C8.8877 18.1596 9.31252 17.9507 9.70543 18.0798C10.4497 18.3242 11.2207 18.4483 12 18.4483C15.3046 18.4483 18.381 16.1864 20.2727 12.3298L20.4284 12.0014L20.3755 11.8846C19.9948 11.0784 19.5645 10.339 19.0898 9.67414L18.8488 9.34799C18.5997 9.02231 18.666 8.55955 18.997 8.31439C19.3279 8.06924 19.7981 8.13452 20.0472 8.46021ZM12 5.55163C10.2903 5.55163 8.61992 6.15424 7.14764 7.30096C5.73781 8.39217 4.52945 9.96072 3.61706 11.9004L3.5704 12.0014L3.61575 12.1003C4.40875 13.7949 5.43058 15.204 6.61652 16.2549L8.75413 14.1507C8.32256 13.5255 8.086 12.785 8.086 12.0012C8.086 9.86841 9.83371 8.1473 12 8.1473C12.7921 8.1473 13.5526 8.38173 14.1865 8.80445L16.189 6.83373C14.8814 5.99052 13.4564 5.55163 12 5.55163ZM15.1366 11.8158L15.238 11.8269C15.6456 11.8991 15.9167 12.2828 15.8434 12.684C15.556 14.2567 14.2992 15.496 12.7022 15.7813C12.2946 15.8541 11.9042 15.588 11.8303 15.1869C11.7563 14.7858 12.0267 14.4016 12.4342 14.3288C13.4152 14.1536 14.1904 13.3892 14.367 12.4227C14.4343 12.055 14.7675 11.8002 15.1366 11.8158ZM12 9.6235C10.6624 9.6235 9.586 10.6835 9.586 12.0012C9.586 12.3851 9.67671 12.7495 9.84681 13.0756L13.0937 9.88048C12.7619 9.71415 12.3876 9.6235 12 9.6235Z" fill="#A4A4A4"/>
</svg>
