<svg width="48" height="48" viewBox="0 0 48 48" fill="none" xmlns="http://www.w3.org/2000/svg">
<path fill-rule="evenodd" clip-rule="evenodd" d="M33.6829 22.326C33.6756 22.3419 33.6684 22.3578 33.6616 22.374C33.6547 22.3908 33.6493 22.4082 33.6439 22.4257C33.6352 22.454 33.6265 22.4822 33.6116 22.507C33.582 22.556 33.5434 22.5972 33.5046 22.6385C33.4935 22.6502 33.4825 22.662 33.4716 22.674C33.4595 22.6865 33.4488 22.7003 33.4381 22.714C33.4232 22.7331 33.4082 22.7523 33.3896 22.768C33.3336 22.8137 33.2689 22.8455 33.2044 22.8772C33.1998 22.8795 33.1952 22.8817 33.1906 22.884C33.177 22.8906 33.164 22.8989 33.151 22.9073C33.1326 22.9191 33.1141 22.931 33.0936 22.938C32.9856 22.978 32.8706 23 32.7516 23C32.6976 23 32.6416 22.996 32.5866 22.986L28.3366 22.281C27.7916 22.191 27.4236 21.676 27.5136 21.131C27.6036 20.587 28.1176 20.214 28.6636 20.309L30.3076 20.581C29.0626 18.395 26.6856 17 24.0696 17C21.1106 17 18.5036 18.718 17.4266 21.375C17.2696 21.765 16.8946 22 16.4996 22C16.3746 22 16.2476 21.977 16.1246 21.927C15.6126 21.72 15.3656 21.137 15.5736 20.625C16.9576 17.208 20.2926 15 24.0696 15C27.4816 15 30.5826 16.87 32.1476 19.788L32.5166 17.815C32.6186 17.273 33.1426 16.914 33.6836 17.018C34.2266 17.119 34.5846 17.642 34.4826 18.185L33.7336 22.185C33.724 22.236 33.7034 22.281 33.6829 22.326ZM30.5735 26.6252C30.7805 26.1122 31.3645 25.8662 31.8755 26.0732C32.3875 26.2802 32.6345 26.8632 32.4265 27.3752C31.0425 30.7922 27.7075 33.0002 23.9305 33.0002C20.5185 33.0002 17.4175 31.1302 15.8525 28.2122L15.4825 30.1842C15.3935 30.6652 14.9735 31.0002 14.5005 31.0002C14.4395 31.0002 14.3775 30.9942 14.3155 30.9822C13.7725 30.8812 13.4155 30.3582 13.5175 29.8152L14.2665 25.8152C14.2741 25.7759 14.291 25.7411 14.3079 25.706C14.3176 25.6858 14.3275 25.6655 14.3355 25.6442C14.3434 25.6243 14.3503 25.6037 14.3572 25.583C14.3722 25.5383 14.3872 25.4935 14.4125 25.4552C14.4273 25.4324 14.4466 25.4142 14.466 25.3959C14.4781 25.3844 14.4903 25.3729 14.5015 25.3602C14.5103 25.35 14.519 25.3397 14.5277 25.3295C14.5753 25.2734 14.6225 25.2178 14.6825 25.1772C14.6884 25.1729 14.6955 25.1703 14.7024 25.1678C14.7084 25.1656 14.7144 25.1634 14.7195 25.1602C14.8165 25.0972 14.9205 25.0482 15.0355 25.0232C15.0425 25.0216 15.0498 25.022 15.0571 25.0224C15.0633 25.0228 15.0695 25.0231 15.0755 25.0222C15.1855 25.0042 15.2965 24.9932 15.4135 25.0132L19.6635 25.7192C20.2085 25.8082 20.5765 26.3242 20.4865 26.8692C20.4055 27.3582 19.9815 27.7052 19.5005 27.7052C19.4465 27.7052 19.3915 27.7012 19.3365 27.6912L17.6925 27.4192C18.9375 29.6052 21.3145 31.0002 23.9305 31.0002C26.8895 31.0002 29.4965 29.2822 30.5735 26.6252Z" fill="#231F20"/>
<mask id="mask0_1_864" style="mask-type:luminance" maskUnits="userSpaceOnUse" x="13" y="15" width="22" height="19">
<path fill-rule="evenodd" clip-rule="evenodd" d="M33.6829 22.326C33.6756 22.3419 33.6684 22.3578 33.6616 22.374C33.6547 22.3908 33.6493 22.4082 33.6439 22.4257C33.6352 22.454 33.6265 22.4822 33.6116 22.507C33.582 22.556 33.5434 22.5972 33.5046 22.6385C33.4935 22.6502 33.4825 22.662 33.4716 22.674C33.4595 22.6865 33.4488 22.7003 33.4381 22.714C33.4232 22.7331 33.4082 22.7523 33.3896 22.768C33.3336 22.8137 33.2689 22.8455 33.2044 22.8772C33.1998 22.8795 33.1952 22.8817 33.1906 22.884C33.177 22.8906 33.164 22.8989 33.151 22.9073C33.1326 22.9191 33.1141 22.931 33.0936 22.938C32.9856 22.978 32.8706 23 32.7516 23C32.6976 23 32.6416 22.996 32.5866 22.986L28.3366 22.281C27.7916 22.191 27.4236 21.676 27.5136 21.131C27.6036 20.587 28.1176 20.214 28.6636 20.309L30.3076 20.581C29.0626 18.395 26.6856 17 24.0696 17C21.1106 17 18.5036 18.718 17.4266 21.375C17.2696 21.765 16.8946 22 16.4996 22C16.3746 22 16.2476 21.977 16.1246 21.927C15.6126 21.72 15.3656 21.137 15.5736 20.625C16.9576 17.208 20.2926 15 24.0696 15C27.4816 15 30.5826 16.87 32.1476 19.788L32.5166 17.815C32.6186 17.273 33.1426 16.914 33.6836 17.018C34.2266 17.119 34.5846 17.642 34.4826 18.185L33.7336 22.185C33.724 22.236 33.7034 22.281 33.6829 22.326ZM30.5735 26.6252C30.7805 26.1122 31.3645 25.8662 31.8755 26.0732C32.3875 26.2802 32.6345 26.8632 32.4265 27.3752C31.0425 30.7922 27.7075 33.0002 23.9305 33.0002C20.5185 33.0002 17.4175 31.1302 15.8525 28.2122L15.4825 30.1842C15.3935 30.6652 14.9735 31.0002 14.5005 31.0002C14.4395 31.0002 14.3775 30.9942 14.3155 30.9822C13.7725 30.8812 13.4155 30.3582 13.5175 29.8152L14.2665 25.8152C14.2741 25.7759 14.291 25.7411 14.3079 25.706C14.3176 25.6858 14.3275 25.6655 14.3355 25.6442C14.3434 25.6243 14.3503 25.6037 14.3572 25.583C14.3722 25.5383 14.3872 25.4935 14.4125 25.4552C14.4273 25.4324 14.4466 25.4142 14.466 25.3959C14.4781 25.3844 14.4903 25.3729 14.5015 25.3602C14.5103 25.35 14.519 25.3397 14.5277 25.3295C14.5753 25.2734 14.6225 25.2178 14.6825 25.1772C14.6884 25.1729 14.6955 25.1703 14.7024 25.1678C14.7084 25.1656 14.7144 25.1634 14.7195 25.1602C14.8165 25.0972 14.9205 25.0482 15.0355 25.0232C15.0425 25.0216 15.0498 25.022 15.0571 25.0224C15.0633 25.0228 15.0695 25.0231 15.0755 25.0222C15.1855 25.0042 15.2965 24.9932 15.4135 25.0132L19.6635 25.7192C20.2085 25.8082 20.5765 26.3242 20.4865 26.8692C20.4055 27.3582 19.9815 27.7052 19.5005 27.7052C19.4465 27.7052 19.3915 27.7012 19.3365 27.6912L17.6925 27.4192C18.9375 29.6052 21.3145 31.0002 23.9305 31.0002C26.8895 31.0002 29.4965 29.2822 30.5735 26.6252Z" fill="white"/>
</mask>
<g mask="url(#mask0_1_864)">
<rect x="12" y="12" width="24" height="24" fill="#F8F8F8"/>
</g>
<rect opacity="0.5" x="0.75" y="0.75" width="46.5" height="46.5" rx="13.25" stroke="#F5F5F5" stroke-width="1.5"/>
</svg>
